<svg xmlns="http://www.w3.org/2000/svg" xmlns:xlink="http://www.w3.org/1999/xlink" width="250" zoomAndPan="magnify" viewBox="0 0 187.5 74.999997" height="100" preserveAspectRatio="xMidYMid meet" version="1.0"><defs><clipPath id="7f355c129d"><path d="M 161 28 L 179.519531 28 L 179.519531 49 L 161 49 Z M 161 28 " clip-rule="nonzero"/></clipPath><clipPath id="87a11e804e"><path d="M 52 20.765625 L 75 20.765625 L 75 50 L 52 50 Z M 52 20.765625 " clip-rule="nonzero"/></clipPath><clipPath id="71c377fd86"><path d="M 7.480469 20.765625 L 37 20.765625 L 37 48 L 7.480469 48 Z M 7.480469 20.765625 " clip-rule="nonzero"/></clipPath><clipPath id="fc482ce8e4"><path d="M 16 33 L 32 33 L 32 54.425781 L 16 54.425781 Z M 16 33 " clip-rule="nonzero"/></clipPath><clipPath id="b4f8749690"><path d="M 7.480469 32 L 22 32 L 22 48 L 7.480469 48 Z M 7.480469 32 " clip-rule="nonzero"/></clipPath></defs><g clip-path="url(#7f355c129d)"><path fill="#000343" d="M 179.085938 48.433594 L 175.648438 48.433594 L 175.648438 37.296875 C 175.648438 35.1875 175.3125 33.648438 174.632812 32.683594 C 173.984375 31.691406 172.980469 31.195312 171.628906 31.195312 C 170.691406 31.195312 169.753906 31.425781 168.816406 31.882812 C 167.90625 32.339844 167.085938 32.960938 166.355469 33.75 C 165.652344 34.511719 165.144531 35.402344 164.832031 36.421875 L 164.832031 48.433594 L 161.398438 48.433594 L 161.398438 28.523438 L 164.519531 28.523438 L 164.519531 32.796875 C 165.066406 31.855469 165.769531 31.042969 166.628906 30.355469 C 167.488281 29.667969 168.464844 29.136719 169.558594 28.753906 C 170.652344 28.371094 171.796875 28.183594 172.992188 28.183594 C 174.164062 28.183594 175.140625 28.398438 175.921875 28.832031 C 176.730469 29.238281 177.355469 29.820312 177.796875 30.585938 C 178.265625 31.324219 178.589844 32.199219 178.773438 33.214844 C 178.980469 34.234375 179.085938 35.339844 179.085938 36.535156 Z M 179.085938 48.433594 " fill-opacity="1" fill-rule="nonzero"/></g><path fill="#000343" d="M 141.140625 42.808594 C 141.140625 41.527344 141.507812 40.421875 142.234375 39.5 C 142.992188 38.550781 144.019531 37.816406 145.324219 37.304688 C 146.625 36.792969 148.132812 36.535156 149.851562 36.535156 C 150.765625 36.535156 151.730469 36.613281 152.746094 36.765625 C 153.761719 36.894531 154.660156 37.097656 155.441406 37.382812 L 155.441406 35.917969 C 155.441406 34.378906 154.972656 33.171875 154.035156 32.300781 C 153.09375 31.402344 151.769531 30.953125 150.046875 30.953125 C 148.929688 30.953125 147.847656 31.160156 146.804688 31.570312 C 145.792969 31.953125 144.710938 32.519531 143.5625 33.261719 L 142.3125 30.875 C 143.640625 29.976562 144.96875 29.3125 146.296875 28.875 C 147.628906 28.414062 149.007812 28.183594 150.441406 28.183594 C 153.042969 28.183594 155.101562 28.902344 156.613281 30.335938 C 158.121094 31.75 158.878906 33.726562 158.878906 36.265625 L 158.878906 44.773438 C 158.878906 45.183594 158.957031 45.488281 159.113281 45.695312 C 159.292969 45.875 159.582031 45.976562 159.972656 46.003906 L 159.972656 48.621094 C 159.632812 48.671875 159.332031 48.710938 159.074219 48.734375 C 158.839844 48.761719 158.644531 48.773438 158.488281 48.773438 C 157.679688 48.773438 157.066406 48.554688 156.652344 48.121094 C 156.261719 47.683594 156.039062 47.222656 155.988281 46.734375 L 155.910156 45.464844 C 155.023438 46.59375 153.863281 47.464844 152.429688 48.082031 C 151 48.699219 149.578125 49.003906 148.175781 49.003906 C 146.820312 49.003906 145.609375 48.734375 144.539062 48.199219 C 143.472656 47.632812 142.640625 46.890625 142.039062 45.964844 C 141.441406 45.015625 141.140625 43.964844 141.140625 42.808594 Z M 154.425781 44.234375 C 154.738281 43.875 154.984375 43.515625 155.167969 43.15625 C 155.347656 42.769531 155.441406 42.449219 155.441406 42.191406 L 155.441406 39.691406 C 154.632812 39.382812 153.785156 39.152344 152.902344 38.996094 C 152.015625 38.816406 151.144531 38.730469 150.285156 38.730469 C 148.539062 38.730469 147.121094 39.074219 146.023438 39.769531 C 144.957031 40.433594 144.421875 41.359375 144.421875 42.539062 C 144.421875 43.179688 144.59375 43.808594 144.933594 44.425781 C 145.296875 45.015625 145.816406 45.503906 146.492188 45.886719 C 147.195312 46.273438 148.054688 46.464844 149.070312 46.464844 C 150.140625 46.464844 151.15625 46.261719 152.121094 45.847656 C 153.082031 45.414062 153.851562 44.875 154.425781 44.234375 Z M 154.425781 44.234375 " fill-opacity="1" fill-rule="nonzero"/><path fill="#000343" d="M 130.519531 49.003906 C 129.011719 49.003906 127.632812 48.734375 126.378906 48.199219 C 125.152344 47.632812 124.078125 46.875 123.15625 45.925781 C 122.261719 44.953125 121.558594 43.835938 121.046875 42.578125 C 120.558594 41.320312 120.316406 39.984375 120.316406 38.574219 C 120.316406 36.675781 120.75 34.945312 121.621094 33.378906 C 122.492188 31.8125 123.691406 30.554688 125.226562 29.605469 C 126.789062 28.65625 128.566406 28.183594 130.558594 28.183594 C 132.578125 28.183594 134.332031 28.667969 135.816406 29.644531 C 137.324219 30.59375 138.488281 31.851562 139.304688 33.417969 C 140.148438 34.957031 140.570312 36.625 140.570312 38.421875 C 140.570312 38.675781 140.558594 38.933594 140.535156 39.191406 C 140.535156 39.421875 140.519531 39.601562 140.496094 39.730469 L 123.882812 39.730469 C 123.988281 41.039062 124.34375 42.207031 124.957031 43.230469 C 125.597656 44.234375 126.417969 45.027344 127.414062 45.617188 C 128.410156 46.183594 129.484375 46.464844 130.636719 46.464844 C 131.863281 46.464844 133.015625 46.15625 134.089844 45.542969 C 135.1875 44.925781 135.941406 44.117188 136.351562 43.117188 L 139.269531 43.925781 C 138.832031 44.898438 138.179688 45.773438 137.3125 46.542969 C 136.46875 47.3125 135.457031 47.914062 134.28125 48.351562 C 133.128906 48.789062 131.875 49.003906 130.519531 49.003906 Z M 123.769531 37.382812 L 137.425781 37.382812 C 137.324219 36.074219 136.953125 34.917969 136.3125 33.917969 C 135.675781 32.917969 134.855469 32.132812 133.859375 31.570312 C 132.859375 31.003906 131.761719 30.722656 130.558594 30.722656 C 129.382812 30.722656 128.296875 31.003906 127.296875 31.570312 C 126.300781 32.132812 125.484375 32.917969 124.84375 33.917969 C 124.230469 34.917969 123.871094 36.074219 123.769531 37.382812 Z M 123.769531 37.382812 " fill-opacity="1" fill-rule="nonzero"/><path fill="#000343" d="M 112.160156 21.140625 L 115.664062 21.140625 L 115.664062 43.710938 C 115.664062 44.796875 115.824219 45.46875 116.140625 45.722656 C 116.460938 45.972656 116.84375 46.101562 117.296875 46.101562 C 117.855469 46.101562 118.386719 46.050781 118.890625 45.949219 C 119.394531 45.824219 119.816406 45.695312 120.164062 45.570312 L 120.71875 48.300781 C 120.136719 48.527344 119.445312 48.71875 118.648438 48.871094 C 117.855469 49.023438 117.152344 49.097656 116.539062 49.097656 C 115.1875 49.097656 114.113281 48.730469 113.316406 47.996094 C 112.546875 47.265625 112.160156 46.238281 112.160156 44.925781 Z M 112.160156 21.140625 " fill-opacity="1" fill-rule="nonzero"/><path fill="#000343" d="M 106.625 32.367188 C 105.007812 32.394531 103.570312 32.765625 102.308594 33.480469 C 101.074219 34.195312 100.191406 35.207031 99.660156 36.511719 L 99.660156 48.785156 L 95.496094 48.785156 L 95.496094 28.726562 L 99.359375 28.726562 L 99.359375 33.210938 C 100.039062 31.832031 100.933594 30.730469 102.042969 29.914062 C 103.15625 29.070312 104.328125 28.609375 105.5625 28.53125 C 105.816406 28.53125 106.019531 28.53125 106.167969 28.53125 C 106.347656 28.53125 106.496094 28.546875 106.625 28.570312 Z M 106.625 32.367188 " fill-opacity="1" fill-rule="nonzero"/><path fill="#000343" d="M 74.671875 43.09375 C 74.671875 41.8125 75.023438 40.699219 75.730469 39.75 C 76.460938 38.777344 77.457031 38.035156 78.71875 37.523438 C 79.976562 36.984375 81.441406 36.714844 83.101562 36.714844 C 83.984375 36.714844 84.878906 36.78125 85.789062 36.910156 C 86.71875 37.035156 87.539062 37.242188 88.246094 37.523438 L 88.246094 36.253906 C 88.246094 34.847656 87.828125 33.746094 86.996094 32.949219 C 86.164062 32.15625 84.96875 31.761719 83.40625 31.761719 C 82.296875 31.761719 81.25 31.964844 80.269531 32.375 C 79.285156 32.757812 78.238281 33.308594 77.128906 34.027344 L 75.730469 31.183594 C 77.042969 30.289062 78.351562 29.621094 79.664062 29.1875 C 81 28.75 82.398438 28.53125 83.859375 28.53125 C 86.507812 28.53125 88.585938 29.25 90.097656 30.683594 C 91.636719 32.09375 92.402344 34.105469 92.402344 36.714844 L 92.402344 44.207031 C 92.402344 44.695312 92.480469 45.039062 92.632812 45.246094 C 92.808594 45.449219 93.097656 45.566406 93.5 45.589844 L 93.5 48.972656 C 93.121094 49.050781 92.78125 49.101562 92.480469 49.125 C 92.175781 49.152344 91.925781 49.164062 91.722656 49.164062 C 90.839844 49.164062 90.171875 48.945312 89.71875 48.511719 C 89.265625 48.074219 89 47.5625 88.925781 46.972656 L 88.8125 45.820312 C 87.957031 46.949219 86.859375 47.820312 85.523438 48.433594 C 84.1875 49.050781 82.839844 49.355469 81.476562 49.355469 C 80.167969 49.355469 78.996094 49.085938 77.960938 48.550781 C 76.929688 47.984375 76.121094 47.230469 75.542969 46.28125 C 74.960938 45.335938 74.671875 44.273438 74.671875 43.09375 Z M 87.261719 44.324219 C 87.566406 43.992188 87.804688 43.65625 87.980469 43.324219 C 88.15625 42.992188 88.246094 42.695312 88.246094 42.441406 L 88.246094 40.136719 C 87.539062 39.855469 86.796875 39.648438 86.015625 39.519531 C 85.234375 39.367188 84.464844 39.289062 83.707031 39.289062 C 82.195312 39.289062 80.960938 39.597656 80.003906 40.210938 C 79.070312 40.828125 78.605469 41.671875 78.605469 42.75 C 78.605469 43.335938 78.753906 43.902344 79.058594 44.4375 C 79.386719 44.976562 79.839844 45.410156 80.417969 45.746094 C 81.023438 46.078125 81.765625 46.246094 82.648438 46.246094 C 83.558594 46.246094 84.425781 46.066406 85.257812 45.707031 C 86.089844 45.347656 86.757812 44.886719 87.261719 44.324219 Z M 87.261719 44.324219 " fill-opacity="1" fill-rule="nonzero"/><g clip-path="url(#87a11e804e)"><path fill="#000343" d="M 52.136719 39.023438 C 52.136719 37.078125 52.527344 35.3125 53.3125 33.730469 C 54.121094 32.121094 55.21875 30.847656 56.605469 29.914062 C 57.992188 28.953125 59.585938 28.472656 61.390625 28.472656 C 62.960938 28.472656 64.375 28.875 65.628906 29.679688 C 66.910156 30.484375 67.902344 31.484375 68.609375 32.679688 L 68.609375 20.765625 L 72.925781 20.765625 L 72.925781 44.359375 C 72.925781 44.851562 73.015625 45.203125 73.199219 45.410156 C 73.382812 45.617188 73.683594 45.734375 74.101562 45.761719 L 74.101562 49.1875 C 73.289062 49.316406 72.664062 49.382812 72.21875 49.382812 C 71.40625 49.382812 70.714844 49.148438 70.140625 48.679688 C 69.589844 48.214844 69.304688 47.65625 69.277344 47.007812 L 69.238281 45.488281 C 68.453125 46.785156 67.394531 47.796875 66.058594 48.523438 C 64.726562 49.226562 63.339844 49.574219 61.902344 49.574219 C 60.488281 49.574219 59.183594 49.304688 57.980469 48.757812 C 56.800781 48.214844 55.769531 47.449219 54.878906 46.460938 C 54.019531 45.476562 53.335938 44.347656 52.839844 43.074219 C 52.371094 41.800781 52.136719 40.453125 52.136719 39.023438 Z M 68.609375 41.867188 L 68.609375 36.53125 C 68.320312 35.703125 67.851562 34.960938 67.199219 34.3125 C 66.570312 33.640625 65.851562 33.105469 65.039062 32.71875 C 64.253906 32.328125 63.472656 32.132812 62.6875 32.132812 C 61.769531 32.132812 60.933594 32.328125 60.175781 32.71875 C 59.445312 33.105469 58.804688 33.625 58.253906 34.273438 C 57.730469 34.925781 57.324219 35.664062 57.039062 36.496094 C 56.75 37.324219 56.605469 38.195312 56.605469 39.101562 C 56.605469 40.039062 56.761719 40.917969 57.078125 41.75 C 57.390625 42.554688 57.835938 43.28125 58.410156 43.929688 C 59.011719 44.554688 59.691406 45.046875 60.449219 45.410156 C 61.234375 45.746094 62.085938 45.917969 63 45.917969 C 63.574219 45.917969 64.152344 45.8125 64.726562 45.605469 C 65.328125 45.398438 65.890625 45.113281 66.414062 44.75 C 66.960938 44.386719 67.421875 43.957031 67.785156 43.464844 C 68.179688 42.96875 68.453125 42.4375 68.609375 41.867188 Z M 68.609375 41.867188 " fill-opacity="1" fill-rule="nonzero"/></g><g clip-path="url(#71c377fd86)"><path fill="#4babf8" d="M 30.257812 24.316406 C 27.496094 22.140625 24.347656 20.960938 20.84375 20.808594 C 19.710938 20.757812 18.570312 20.761719 17.433594 20.765625 C 16.914062 20.769531 16.398438 20.769531 15.882812 20.769531 L 7.917969 20.769531 L 7.917969 34.351562 L 22.570312 28.117188 C 23.65625 27.65625 24.914062 28.15625 25.390625 29.242188 L 33.425781 47.542969 C 36.339844 43.558594 37.332031 39.085938 36.378906 34.230469 C 35.574219 30.179688 33.484375 26.867188 30.257812 24.316406 Z M 30.257812 24.316406 " fill-opacity="1" fill-rule="nonzero"/></g><g clip-path="url(#fc482ce8e4)"><path fill="#4babf8" d="M 31.257812 50.066406 L 23.878906 33.265625 L 19.957031 43.847656 L 16.035156 54.425781 L 18.449219 54.425781 C 20.050781 54.425781 22.871094 54.261719 24.214844 53.890625 C 26.921875 53.15625 29.28125 51.890625 31.257812 50.066406 Z M 31.257812 50.066406 " fill-opacity="1" fill-rule="nonzero"/></g><g clip-path="url(#b4f8749690)"><path fill="#4babf8" d="M 15.542969 47.195312 L 21.167969 32.03125 L 7.917969 37.667969 L 7.917969 47.195312 Z M 15.542969 47.195312 " fill-opacity="1" fill-rule="nonzero"/></g></svg>